# xmcd
#
# Track frame offsets:
# 150
# 18217
# 37054
# 54189
# 73602
# 87857
# 104565
# 118890
# 134988
# 148561
# 164399
# 181945
#
# Disc length: 2722 seconds
#
#
# Revision: 0
# Processed by: cddbd v1.5PL3 Copyright (c) Steve Scherf et al.
# Submitted via: FreeRIP 2.53 
#
DISCID=ac0aa00c
DTITLE=Clark, Terri - Fearless
DYEAR=1900
DGENRE=
TTITLE0=No Fear
TTITLE1=Sometimes Goodbye
TTITLE2=Take My Time
TTITLE3=Empty
TTITLE4=Getting There
TTITLE5=Easy From Now On
TTITLE6=A Little Gasoline
TTITLE7=Last Thing I Wanted
TTITLE8=To Tell You Everything
TTITLE9=The Real Thing
TTITLE10=Midnight's Gone
TTITLE11=Good Mother
EXTD=
EXTT0=
EXTT1=
EXTT2=
EXTT3=
EXTT4=
EXTT5=
EXTT6=
EXTT7=
EXTT8=
EXTT9=
EXTT10=
EXTT11=
PLAYORDER=
